# xmcd
#
# Track frame offsets:
# 150
# 17687
# 40544
# 57663
# 76488
# 92932
# 113136
# 129090
# 146697
# 163684
# 185722
#
# Disc length: 2751 seconds
#
#
# Revision: 0
# Processed by: cddbd v1.5.2PL0 Copyright (c) Steve Scherf et al.
# Submitted via: FreeRIP 2.951 
#
DISCID=910abd0b
DTITLE=Arrest - The Difference
DYEAR=2002
DGENRE=Hard Rock
TTITLE0=Big Jim
TTITLE1=Dirty Black Hole
TTITLE2=Beast In You
TTITLE3=Bloody Crown Of Thorns
TTITLE4=Soldiers Of Sins
TTITLE5=Toxic Dreams
TTITLE6=Dark Ages
TTITLE7=The Difference
TTITLE8=Story Of Horror
TTITLE9=The Shinning Light
TTITLE10=You Are The One
EXTD=
EXTT0=
EXTT1=
EXTT2=
EXTT3=
EXTT4=
EXTT5=
EXTT6=
EXTT7=
EXTT8=
EXTT9=
EXTT10=
PLAYORDER=
